<svg xmlns="http://www.w3.org/2000/svg" width="67" height="93" viewBox="0 0 67 93">
  <g id="Symbol_41_1" data-name="Symbol 41 – 1" transform="translate(-25 -175)">
    <rect id="Rectangle_264" data-name="Rectangle 264" width="67" height="93" transform="translate(25 175)" fill="#db504a"/>
    <g id="Layer_1" data-name="Layer 1" transform="translate(32 203)">
      <path id="Path_211" data-name="Path 211" d="M4.421,40a8.925,8.925,0,0,1-3.345-.611L.24,39.055l-.193-.911c-.169-.878-.08-1.47,3.828-5.21a15.718,15.718,0,0,0,4.331-6.177,15.079,15.079,0,0,1-3.19-9.489c0-4.726,2.56-9.127,7.215-12.392A29.154,29.154,0,0,1,28.909,0C42.062,0,52.8,7.746,52.8,17.263S42.081,34.532,28.909,34.532a39.3,39.3,0,0,1-9.24-1.513,45.326,45.326,0,0,1-5.834,3.96C10.264,38.989,7.112,40,4.421,40ZM28.909,3.288A25.891,25.891,0,0,0,14.121,7.563c-3.758,2.635-5.816,6.079-5.816,9.7a11.408,11.408,0,0,0,2.819,7.85l.62.554-.08.8c-.038.4-.531,4.087-5.5,8.841-.578.55-1.043,1.01-1.409,1.409,4.787-.188,11.114-4.7,13.487-6.75l.686-.6.869.268a40.132,40.132,0,0,0,9.141,1.616c11.359,0,20.6-6.271,20.6-13.98S40.267,3.288,28.909,3.288Z" transform="translate(0)" fill="#fff"/>
    </g>
  </g>
</svg>
