<svg xmlns="http://www.w3.org/2000/svg" width="67" height="93" viewBox="0 0 67 93">
  <g id="Symbol_43_1" data-name="Symbol 43 – 1" transform="translate(-25 -365)">
    <rect id="Rectangle_266" data-name="Rectangle 266" width="67" height="93" transform="translate(25 365)" fill="#db504a"/>
    <g id="Asset_31" data-name="Asset 31" transform="translate(46 393)">
      <g id="Layer_1" data-name="Layer 1" transform="translate(0)">
        <path id="Path_215" data-name="Path 215" d="M23.6,37.024A1.4,1.4,0,0,1,22.6,36.6L12.5,26.243,2.409,36.6A1.4,1.4,0,0,1,0,35.621V1.4A1.4,1.4,0,0,1,1.4,0H23.6A1.4,1.4,0,0,1,25,1.4V35.621A1.4,1.4,0,0,1,23.6,37.024Zm-11.1-14.2a1.4,1.4,0,0,1,1.006.426l8.69,8.919V2.806H2.806V32.174l8.69-8.919A1.4,1.4,0,0,1,12.5,22.829Z" transform="translate(0 0)" fill="#fff"/>
      </g>
    </g>
  </g>
</svg>
