<svg xmlns="http://www.w3.org/2000/svg" width="67" height="93" viewBox="0 0 67 93">
  <g id="Symbol_45_1" data-name="Symbol 45 – 1" transform="translate(-25 -555)">
    <rect id="Rectangle_268" data-name="Rectangle 268" width="67" height="93" transform="translate(25 555)" fill="#db504a"/>
    <g id="Asset_48" data-name="Asset 48" transform="translate(38 585)">
      <g id="Layer_1" data-name="Layer 1">
        <path id="Path_217" data-name="Path 217" d="M39.095,4.994H28.334V1.088A1.088,1.088,0,0,0,27.245,0H12.937a1.088,1.088,0,0,0-1.088,1.088V4.994H1.088A1.088,1.088,0,0,0,0,6.082V32.617A1.088,1.088,0,0,0,1.088,33.7H39.095a1.088,1.088,0,0,0,1.088-1.088V6.082A1.088,1.088,0,0,0,39.095,4.994ZM14.025,2.176H26.157V4.994H14.025ZM12.937,7.17H38.006v3.206c-2.68,1.168-13.1,5.56-17.913,5.56S4.856,11.544,2.176,10.377V7.17ZM2.176,31.529V12.749c3.7,1.578,13.057,5.364,17.917,5.364s14.221-3.787,17.913-5.364v18.78Z" fill="#fff"/>
      </g>
    </g>
  </g>
</svg>
