<svg xmlns="http://www.w3.org/2000/svg" width="51.527" height="51.526" viewBox="0 0 51.527 51.526">
  <g id="Symbol_47_1" data-name="Symbol 47 – 1" transform="translate(-23.796 -117.291)">
    <path id="Path_110" data-name="Path 110" d="M61.823,66.036A25.763,25.763,0,1,1,87.586,40.272,25.763,25.763,0,0,1,61.823,66.036Zm0-49.167a23.4,23.4,0,1,0,23.4,23.4A23.4,23.4,0,0,0,61.823,16.87Z" transform="translate(-12.263 102.782)" fill="#084c61"/>
    <path id="Path_111" data-name="Path 111" d="M70.329,105.313c10.923,0,19.828-7.721,20.264-17.393l-40.513.315C50.694,97.761,59.524,105.313,70.329,105.313Z" transform="translate(-20.769 58.246)" fill="#084c61"/>
    <ellipse id="Ellipse_28" data-name="Ellipse 28" cx="1.459" cy="2.377" rx="1.459" ry="2.377" transform="translate(40.817 137.648)" fill="#084c61"/>
    <ellipse id="Ellipse_29" data-name="Ellipse 29" cx="1.459" cy="2.377" rx="1.459" ry="2.377" transform="translate(55.04 137.648)" fill="#084c61"/>
  </g>
</svg>
