<svg xmlns="http://www.w3.org/2000/svg" width="153.121" height="109.349" viewBox="0 0 153.121 109.349">
  <g id="Asset_47" data-name="Asset 47" transform="translate(-110.987 -184.564)">
    <g id="Layer_1" data-name="Layer 1" transform="translate(110.987 184.564)">
      <path id="Path_214" data-name="Path 214" d="M152.307,1.049a3.149,3.149,0,0,0-3.262-.91L2.251,44.357A3.161,3.161,0,0,0,1.935,50.3L45.522,68.623l5.855,38.061a3.161,3.161,0,0,0,2.858,2.668H54.5a3.1,3.1,0,0,0,1.77-.556h0l33.6-22.811,21.268,9.028a3.174,3.174,0,0,0,4.147-1.682L152.876,4.387a3.174,3.174,0,0,0-.569-3.338ZM12.481,47.885,128.067,13.062,48.051,62.844ZM51.768,67.978l58.912-36.67L63.793,69.836h0a3.237,3.237,0,0,0-1,1.429l-7.208,21.5Zm8.649,30.347,7.3-21.787L82.887,83Zm50.275-10.419L71.835,71.468l70.216-57.66Z" transform="translate(0.002 -0.002)" fill="#fff"/>
    </g>
  </g>
</svg>
