<svg xmlns="http://www.w3.org/2000/svg" width="63.523" height="34.26" viewBox="0 0 63.523 34.26">
  <g id="Asset_15" data-name="Asset 15" transform="translate(0.007 -0.012)">
    <g id="Layer_1" data-name="Layer 1" transform="translate(-0.007 0.011)">
      <path id="Path_123" data-name="Path 123" d="M4.957,12.405a17.12,17.12,0,0,1,4.533-1.93,12.472,12.472,0,0,1,13.379,5.25c.417.624.553.517.917-.021a12.43,12.43,0,0,1,20.4-.478,12,12,0,0,1,.185,13.411,12.355,12.355,0,0,1-20.687,0c-.535-.8-.535-.8-1.07,0a12.407,12.407,0,0,1-12.794,5.35A11.822,11.822,0,0,1,.252,24.471,9.274,9.274,0,0,1,0,22.442Q0,12.491,0,2.568A2.436,2.436,0,0,1,2.246.029a2.408,2.408,0,0,1,2.622,1.8A4.369,4.369,0,0,1,4.953,2.9C4.96,6.006,4.957,9.124,4.957,12.405Zm7.294,2.529a7.337,7.337,0,0,0-7.458,7.244,7.235,7.235,0,0,0,7.4,7.265,7.217,7.217,0,0,0,7.451-7.212,7.3,7.3,0,0,0-7.4-7.3Zm21.853,0A7.3,7.3,0,0,0,26.681,22.2a7.212,7.212,0,0,0,7.422,7.24,7.447,7.447,0,0,0,7.429-7.322A7.349,7.349,0,0,0,34.1,14.934Z" transform="translate(0.007 -0.011)" fill="#fff"/>
      <path id="Path_124" data-name="Path 124" d="M132.5,44.046c-1.762,2.279-3.449,4.466-5.14,6.648a2.543,2.543,0,0,1-3.731.631c-1.234-.931-1.32-2.251-.235-3.67,1.858-2.429,3.716-4.861,5.61-7.265a.888.888,0,0,0,0-1.291c-1.873-2.383-3.7-4.8-5.553-7.2a3.075,3.075,0,0,1-.713-1.427,2.531,2.531,0,0,1,1.291-2.7,2.65,2.65,0,0,1,3.192.849c1.612,2.094,3.21,4.212,4.794,6.32.143.185.292.357.5.628.76-.927,1.491-1.819,2.218-2.714,1.088-1.334,2.186-2.664,3.256-4.013a2.422,2.422,0,0,1,1.99-1A2.308,2.308,0,0,1,142.2,31.17a4.9,4.9,0,0,1-.653,1.07c-1.783,2.343-3.549,4.694-5.35,7a.946.946,0,0,0,0,1.366c1.8,2.358,3.567,4.74,5.35,7.133,1.12,1.5,1.091,2.925-.061,3.784s-2.782.51-3.873-.892Z" transform="translate(-78.896 -17.731)" fill="#fff"/>
    </g>
  </g>
</svg>
