<?xml version="1.0" encoding="utf-8"?>
<!-- Generator: Adobe Illustrator 23.0.3, SVG Export Plug-In . SVG Version: 6.00 Build 0)  -->
<svg version="1.1" id="Layer_1" xmlns="http://www.w3.org/2000/svg" xmlns:xlink="http://www.w3.org/1999/xlink" x="0px" y="0px"
	 viewBox="0 0 223.4 124.5" style="enable-background:new 0 0 223.4 124.5;" xml:space="preserve">
<style type="text/css">
	.st0{fill:#FFFFFF;}
</style>
<title>Asset 6</title>
<g>
	<path class="st0" d="M147.1,63.3h-3.2c-0.2-7.5-1.7-26.9-12-37.5c-4.5-4.8-10.8-7.4-17.4-7.3c-8,0-14.7,2.8-19.9,8.2
		C84.5,37.6,83.4,55.9,83.4,63.3h-3.2c-1.7,0-3,1.3-3,3v55.2c0,1.7,1.3,3,3,3h66.8c1.7,0,3-1.3,3-3V66.3
		C150.1,64.7,148.7,63.3,147.1,63.3z M99,30.8c4-4.3,9-6.3,15.4-6.3c4.9-0.1,9.7,1.8,13.1,5.4c8.7,9,10.1,26.5,10.3,33.4H89.5
		C89.5,56.7,90.4,40,99,30.8z M144.1,118.5H83.3V69.3h60.8V118.5z"/>
	<path class="st0" d="M105.7,106.6c0.5,0.5,15.3,0.5,15.9,0c0.4-0.4-1.1-5.1-2.9-10.3c1.8-1.5,2.9-3.6,2.9-6.1
		c0-4.4-3.5-7.9-7.9-7.9s-7.9,3.5-7.9,7.9c0,2.5,1.2,4.8,3,6.2C107,101.7,105.5,106.4,105.7,106.6z"/>
	<path class="st0" d="M57.5,15.8L23.9,0.3c-0.1-0.1-0.2-0.1-0.3-0.1c-1.5-0.6-3.3,0.1-3.9,1.7c-0.6,1.5,0.1,3.3,1.7,3.9L55,21.2
		c0.4,0.2,0.8,0.3,1.2,0.3c1.2,0,2.3-0.7,2.7-1.8C59.6,18.2,59,16.5,57.5,15.8z"/>
	<path class="st0" d="M57.1,46l-21.5-6.4c-0.1,0-0.1,0-0.2-0.1c-1.6-0.4-3.2,0.6-3.7,2.2c-0.4,1.6,0.6,3.2,2.2,3.7l21.4,6.4
		c0.3,0.1,0.6,0.1,0.9,0.1v0c1.3,0,2.5-0.9,2.9-2.2C59.6,48.1,58.7,46.5,57.1,46z"/>
	<path class="st0" d="M54.5,104.6l-18.8,13c-0.8,0.6-1.3,1.5-1.3,2.5c0,1.7,1.4,3,3,3c0.6,0,1.2-0.2,1.7-0.5l18.8-13
		c1.4-0.9,1.7-2.8,0.8-4.2S55.9,103.7,54.5,104.6z"/>
	<path class="st0" d="M189,117.6l-18.8-13c-1.4-0.9-3.2-0.6-4.2,0.8s-0.6,3.2,0.8,4.2l18.8,13c0.5,0.4,1.1,0.5,1.7,0.5
		c1,0,1.9-0.5,2.5-1.3C190.7,120.4,190.4,118.6,189,117.6z"/>
	<path class="st0" d="M50.1,78.6c-0.4-1.6-2-2.6-3.6-2.3l-44.2,11C0.9,87.7,0,88.9,0,90.2c0,1.7,1.3,3,3,3c0.2,0,0.5,0,0.7-0.1
		l44.2-11C49.5,81.7,50.4,80.2,50.1,78.6z"/>
	<path class="st0" d="M167.2,24.9c0.4,0,0.9-0.1,1.3-0.3l33.6-15.5c1.5-0.7,2.2-2.5,1.5-4s-2.5-2.2-4-1.5l-33.6,15.5
		c-1.1,0.5-1.7,1.5-1.7,2.7C164.2,23.5,165.5,24.9,167.2,24.9z"/>
	<path class="st0" d="M168.1,55.1l21.5-6.4c1.6-0.5,2.5-2.1,2-3.7c-0.5-1.6-2.1-2.5-3.7-2l-21.5,6.4c-1.3,0.4-2.1,1.5-2.1,2.8
		c0,1.7,1.3,3,3,3C167.5,55.2,167.8,55.2,168.1,55.1z"/>
	<path class="st0" d="M221.1,90.7l-44.2-11c-0.1,0-0.1,0-0.2,0c-1.6-0.4-3.2,0.7-3.6,2.3c-0.4,1.6,0.7,3.2,2.3,3.6l44.2,11
		c0.2,0.1,0.5,0.1,0.7,0.1v0c1.4,0,2.6-0.9,2.9-2.3C223.7,92.7,222.7,91.1,221.1,90.7z"/>
</g>
</svg>
