<?xml version="1.0" encoding="utf-8"?>
<!-- Generator: Adobe Illustrator 23.0.3, SVG Export Plug-In . SVG Version: 6.00 Build 0)  -->
<svg version="1.1" id="Layer_1" xmlns="http://www.w3.org/2000/svg" xmlns:xlink="http://www.w3.org/1999/xlink" x="0px" y="0px"
	 viewBox="0 0 82.5 56.5" style="enable-background:new 0 0 82.5 56.5;" xml:space="preserve">
<style type="text/css">
	.st0{enable-background:new    ;}
	.st1{fill:#084C61;}
	.st2{fill:#DB504A;}
</style>
<g id="Group_232" transform="translate(-20 -11.493)">
	<g class="st0">
		<path class="st1" d="M31.4,34.5l1.2,2.1c-1.6,1.4-3.4,2.1-5.4,2.1c-2,0-3.6-0.6-4.8-1.8s-1.7-2.9-1.7-5c0-2.2,0.6-4,1.8-5.3
			c1.2-1.3,2.9-1.9,5.1-1.9c0.6,0,1.3,0.1,2,0.2s1.3,0.3,1.7,0.4l0.6,0.2l-0.1,4.1h-2.2l-0.4-1.8c-0.5-0.1-1.1-0.2-1.7-0.2
			c-0.9,0-1.7,0.3-2.2,0.9c-0.5,0.6-0.8,1.6-0.8,2.8c0,1.4,0.3,2.5,0.8,3.2s1.3,1.1,2.3,1.1c0.3,0,0.6,0,1-0.1
			c0.3-0.1,0.6-0.1,0.9-0.3c0.3-0.1,0.5-0.2,0.7-0.3c0.2-0.1,0.4-0.2,0.7-0.4C31.2,34.6,31.3,34.5,31.4,34.5z"/>
		<path class="st1" d="M47.1,38.3l-5,0.2l-0.4-1.6c-0.1,0.1-0.4,0.3-0.6,0.5s-0.7,0.5-1.4,0.8c-0.7,0.4-1.4,0.5-2,0.5
			c-1.2,0-2.2-0.3-2.8-1c-0.7-0.7-1-1.6-1-2.9c0-2.8,2-4.1,6-4.1h1.8v-1.4c0-1.2-0.6-1.9-1.9-1.9c-0.4,0-0.8,0-1.1,0.1
			c-0.4,0.1-0.6,0.1-0.8,0.2l-0.2,0.1L37,29.4h-2.2l-0.2-3.7c2-0.7,3.8-1,5.4-1c1.9,0,3.2,0.4,4,1.1c0.8,0.7,1.2,2,1.2,3.8v6.2
			l1.9,0.5V38.3z M37.4,34.4c0,1,0.5,1.5,1.5,1.5c0.4,0,0.8-0.1,1.3-0.4c0.4-0.2,0.8-0.5,1-0.7l0.4-0.3v-1.7h-1.4
			c-1,0-1.7,0.1-2.1,0.4C37.6,33.5,37.4,33.9,37.4,34.4z"/>
		<path class="st1" d="M48.5,25.2l5.2-0.2l0.2,1.7c0.1-0.1,0.3-0.3,0.6-0.5c0.2-0.2,0.7-0.5,1.3-0.9c0.6-0.4,1.2-0.5,1.7-0.5
			c0.4,0,0.8,0,1.2,0.1s0.7,0.2,0.8,0.2l0.2,0.1l-0.2,4.8h-2.2l-0.4-2.1c-0.4,0-0.9,0.1-1.3,0.3c-0.4,0.2-0.8,0.5-1,0.7l-0.4,0.3
			v6.7l2.4,0.6v2h-8v-2l2-0.6v-8.2l-2-0.5V25.2z"/>
		<path class="st1" d="M73,32.5l-8.3,0.1c0.1,1,0.4,1.8,0.9,2.4c0.5,0.6,1.2,0.9,2.1,0.9c0.6,0,1.3-0.1,2-0.3
			c0.7-0.2,1.2-0.4,1.6-0.6l0.6-0.3l1.1,2c-0.2,0.1-0.4,0.3-0.8,0.6c-0.3,0.2-1,0.5-2,0.9c-1,0.4-2,0.6-2.9,0.6
			c-2.1,0-3.7-0.6-4.8-1.8c-1.1-1.2-1.7-2.8-1.7-5c0-2.2,0.6-4,1.8-5.3c1.2-1.3,2.8-2,4.9-2c1.8,0,3.2,0.5,4.2,1.6
			c1,1,1.5,2.5,1.5,4.3L73,32.5z M67.2,27.7c-0.7,0-1.2,0.2-1.7,0.7c-0.4,0.5-0.7,1.1-0.8,1.9h4.5C69.3,28.5,68.6,27.7,67.2,27.7z"
			/>
		<path class="st1" d="M86.9,32.5l-8.3,0.1c0.1,1,0.4,1.8,0.9,2.4c0.5,0.6,1.2,0.9,2.1,0.9c0.6,0,1.3-0.1,2-0.3
			c0.7-0.2,1.2-0.4,1.6-0.6l0.6-0.3l1.1,2c-0.2,0.1-0.4,0.3-0.8,0.6c-0.3,0.2-1,0.5-2,0.9c-1,0.4-2,0.6-2.9,0.6
			c-2.1,0-3.7-0.6-4.8-1.8s-1.7-2.8-1.7-5c0-2.2,0.6-4,1.8-5.3c1.2-1.3,2.8-2,4.9-2c1.8,0,3.2,0.5,4.2,1.6c1,1,1.5,2.5,1.5,4.3
			L86.9,32.5z M81.1,27.7c-0.7,0-1.2,0.2-1.7,0.7s-0.7,1.1-0.8,1.9h4.5C83.2,28.5,82.5,27.7,81.1,27.7z"/>
		<path class="st1" d="M88.6,25.2l5.2-0.2l0.2,1.7c0.1-0.1,0.3-0.3,0.6-0.5c0.2-0.2,0.7-0.5,1.3-0.9c0.6-0.4,1.2-0.5,1.7-0.5
			c0.4,0,0.8,0,1.2,0.1s0.7,0.2,0.8,0.2l0.2,0.1l-0.2,4.8h-2.2L97,27.8c-0.4,0-0.9,0.1-1.3,0.3c-0.4,0.2-0.8,0.5-1,0.7l-0.3,0.3v6.7
			l2.4,0.6v2h-8v-2l2-0.6v-8.2l-2-0.5V25.2z"/>
	</g>
	<g class="st0">
		<path class="st2" d="M29.1,58.8V61h-7.7v-2.2l1.9-0.6V46.3l-1.9-0.8v-2.1l7.7-0.1v2.2l-1.9,0.8v4.1h6.5v-4.1l-1.9-0.8v-2.1
			l7.7-0.1v2.2l-1.9,0.8v11.9l1.9,0.6V61h-7.7v-2.2l1.9-0.6v-4.8h-6.5v4.8L29.1,58.8z"/>
		<path class="st2" d="M51.7,43.1c2.5,0,4.4,0.8,5.8,2.3c1.4,1.6,2.1,3.7,2.1,6.5c0,2.8-0.8,5.1-2.3,6.8c-1.5,1.7-3.6,2.6-6.1,2.6
			s-4.4-0.8-5.8-2.3c-1.3-1.5-2-3.8-2-6.7c0-2.9,0.7-5.1,2.2-6.8C47.2,43.9,49.2,43.1,51.7,43.1z M51.6,46.2c-1.3,0-2.3,0.5-3,1.4
			c-0.7,0.9-1,2.5-1,4.6c0,2,0.3,3.6,0.9,4.5c0.6,1,1.5,1.5,2.8,1.5c1.3,0,2.3-0.5,3-1.4c0.7-1,1-2.5,1-4.7c0-2-0.3-3.5-0.9-4.5
			C53.8,46.7,52.9,46.2,51.6,46.2z"/>
		<path class="st2" d="M72.3,43.1c2.5,0,4.4,0.8,5.8,2.3c1.4,1.6,2.1,3.7,2.1,6.5c0,2.8-0.8,5.1-2.3,6.8c-1.5,1.7-3.6,2.6-6.1,2.6
			s-4.4-0.8-5.8-2.3c-1.3-1.5-2-3.8-2-6.7c0-2.9,0.7-5.1,2.2-6.8C67.8,43.9,69.8,43.1,72.3,43.1z M72.2,46.2c-1.3,0-2.3,0.5-2.9,1.4
			c-0.7,0.9-1,2.5-1,4.6c0,2,0.3,3.6,0.9,4.5c0.6,1,1.5,1.5,2.8,1.5c1.3,0,2.3-0.5,3-1.4c0.7-1,1-2.5,1-4.7c0-2-0.3-3.5-1-4.5
			C74.4,46.7,73.5,46.2,72.2,46.2z"/>
		<path class="st2" d="M92,58.8V61h-7.7v-2.2l1.9-0.6V46.3l-1.9-0.8v-2.1l7.7-0.1v2.2l-1.9,0.8v4.3h1.7l4.2-7.1l4.6-0.1v2.2
			l-2.2,0.7L95,51.7l4.7,6.5l1.8,0.6V61h-7.7v-2.2l1.5-0.6l-3.4-4.8h-1.8v4.8L92,58.8z"/>
	</g>
</g>
</svg>
