<svg xmlns="http://www.w3.org/2000/svg" width="322.695" height="153.221" viewBox="0 0 322.695 153.221">
  <g id="Artboard_1" data-name="Artboard 1" transform="translate(-34.604 -183.672)">
    <path id="Path_83" data-name="Path 83" d="M1022.927,243.552c.91-14.556-.921-21.326-1.707-24.274s-1.275-4.409-.274-5.72c2.526-3.31,5.335-9.358,7.773-14.631s4.507-9.77,5.557-9.966c1.624-.318,7.442,5.055,12.857,10.512s10.416,10.977,10.416,10.977,5.34,19.461,1.952,38.292-15.5,37.02-50.4,34.483a35.794,35.794,0,0,1-13.793-3.757C1013.779,279.031,1021.288,267.056,1022.927,243.552Z" transform="translate(-703.329 43.584)" fill="#db504a"/>
    <path id="Path_84" data-name="Path 84" d="M888.491,130.131a37.072,37.072,0,0,0,9.78-1.911s.075,23.858,3.429,43.815c3.561,21.191,9.4,32.952,18.153,35.365,0,0,9.405.965,10.344-1.215-2.157,18.342-11.246,24.641-26.012,26.728-16.49-8.407-24.194-29.342-27.206-50.942-1.728-12.376-2.069-52.212-2.069-52.212S877.778,131.008,888.491,130.131Z" transform="translate(-614.063 88.608)" fill="#084c61"/>
    <text id="career" transform="translate(34.603 266.028)" fill="#084c61" font-size="63" font-family="Bitter-Bold, Bitter" font-weight="700"><tspan x="0" y="0">career</tspan></text>
    <text id="HOOK" transform="translate(35.896 319.892)" fill="#db504a" font-size="63" font-family="Bitter-Bold, Bitter" font-weight="700" letter-spacing="0.07em"><tspan x="0" y="0">HOOK</tspan></text>
    <path id="Path_85" data-name="Path 85" d="M849.63,33.229a24.169,24.169,0,0,1-8.376-1.293c-2.2-.83-6.63-8.81-9.345-16.808h0l-.026-.093-.049-.145h0c-1.4-4.952-2.746-10.432-1.125-12.865A3.074,3.074,0,0,1,833.036.7c.9-.109,1.006-.119,3.662-.336l.22-.018h0C839.731.111,843.543,0,848.236,0c6.351,0,12.93.2,17.341.365h.052V.38c3.525.463,5.689,1.014,6.4,1.639,2.87,2.488-.217,11.4-1.678,15.12l-.021.047a119.742,119.742,0,0,1-5.172,12.736C864.6,30.984,856.886,33.229,849.63,33.229Z" transform="translate(-580.744 183.672)" fill="#084c61"/>
  </g>
</svg>
