<svg xmlns="http://www.w3.org/2000/svg" viewBox="0 0 80.77 36.61"><defs><style>.cls-1{isolation:isolate;}.cls-2{fill:#084c61;}.cls-3{fill:#db504a;}</style></defs><title>careerhook-colortext-expanded</title><g id="Layer_2" data-name="Layer 2"><g id="Layer_1-2" data-name="Layer 1"><g id="Group_232" data-name="Group 232"><g id="career" class="cls-1"><g class="cls-1"><path class="cls-2" d="M10.62,9.75l1.26,2.13A8,8,0,0,1,6.5,14a6.3,6.3,0,0,1-4.79-1.8A7,7,0,0,1,0,7.2,7.41,7.41,0,0,1,1.81,1.92,6.64,6.64,0,0,1,6.88,0a10.87,10.87,0,0,1,2,.21,11.81,11.81,0,0,1,1.73.44l.6.23L11.12,5H8.88l-.36-1.8A6.61,6.61,0,0,0,6.8,3a2.62,2.62,0,0,0-2.16.94A4.36,4.36,0,0,0,3.88,6.7,5.67,5.67,0,0,0,4.66,10,2.69,2.69,0,0,0,7,11.08,4.86,4.86,0,0,0,8,11a4.7,4.7,0,0,0,.88-.27,5.49,5.49,0,0,0,.66-.3c.16-.08.37-.2.65-.37Z"/><path class="cls-2" d="M26.38,13.58l-5,.17L21,12.12l-.6.52a8.54,8.54,0,0,1-1.44.83,4.45,4.45,0,0,1-2,.53,3.81,3.81,0,0,1-2.84-1,3.87,3.87,0,0,1-1-2.89q0-4.12,6-4.13H20.8V4.58A1.68,1.68,0,0,0,18.88,2.7a6,6,0,0,0-1.13.1,5.63,5.63,0,0,0-.83.2l-.25.08L16.3,4.7H14.05L13.88,1A17.35,17.35,0,0,1,19.3,0c1.9,0,3.24.37,4,1.11S24.5,3.13,24.5,5v6.17l1.88.46ZM16.65,9.7a1.31,1.31,0,0,0,1.47,1.5,2.67,2.67,0,0,0,1.27-.36,4.49,4.49,0,0,0,1-.74l.38-.35V8.08H19.38a4.19,4.19,0,0,0-2.09.38A1.33,1.33,0,0,0,16.65,9.7Z"/><path class="cls-2" d="M27.8.45,33,.25,33.2,2c.13-.14.32-.33.55-.55A8.93,8.93,0,0,1,35,.55,3.25,3.25,0,0,1,36.67,0a6.45,6.45,0,0,1,1.17.11,4.61,4.61,0,0,1,.83.24l.25.1-.2,4.75H36.55l-.38-2.12a2.88,2.88,0,0,0-1.32.34,4.68,4.68,0,0,0-1,.7l-.35.35v6.65l2.38.63v2h-8v-2l2-.63V3l-2-.5Z"/><path class="cls-2" d="M52.28,7.75,44,7.83a3.69,3.69,0,0,0,.92,2.39,2.74,2.74,0,0,0,2.08.86,7.59,7.59,0,0,0,2-.29,8.22,8.22,0,0,0,1.62-.59l.6-.3,1.08,2q-.27.22-.78.57a10.37,10.37,0,0,1-2,.94,8,8,0,0,1-2.92.59,6.35,6.35,0,0,1-4.84-1.76,7,7,0,0,1-1.66-5A7.6,7.6,0,0,1,41.82,2a6.28,6.28,0,0,1,4.9-2A5.51,5.51,0,0,1,51,1.58a6,6,0,0,1,1.47,4.3ZM46.47,2.92a2.17,2.17,0,0,0-1.66.7A3.33,3.33,0,0,0,44,5.5h4.5C48.53,3.78,47.84,2.92,46.47,2.92Z"/><path class="cls-2" d="M66.2,7.75l-8.3.08a3.69,3.69,0,0,0,.91,2.39,2.76,2.76,0,0,0,2.09.86,7.65,7.65,0,0,0,2-.29,8.47,8.47,0,0,0,1.62-.59l.6-.3,1.07,2c-.18.15-.44.34-.77.57a10.37,10.37,0,0,1-2,.94,8.06,8.06,0,0,1-2.93.59,6.35,6.35,0,0,1-4.83-1.76,7,7,0,0,1-1.67-5A7.61,7.61,0,0,1,55.75,2a6.26,6.26,0,0,1,4.9-2,5.54,5.54,0,0,1,4.23,1.58,6,6,0,0,1,1.47,4.3ZM60.4,2.92a2.16,2.16,0,0,0-1.66.7A3.34,3.34,0,0,0,58,5.5h4.5C62.45,3.78,61.77,2.92,60.4,2.92Z"/><path class="cls-2" d="M67.9.45l5.17-.2L73.3,2l.55-.55A8.93,8.93,0,0,1,75.11.55,3.25,3.25,0,0,1,76.77,0a6.45,6.45,0,0,1,1.17.11,4.61,4.61,0,0,1,.83.24l.25.1-.2,4.75H76.65l-.38-2.12A2.88,2.88,0,0,0,75,3.42a4.68,4.68,0,0,0-1,.7l-.35.35v6.65l2.38.63v2h-8v-2l2-.63V3l-2-.5Z"/></g></g><g id="HOOK" class="cls-1"><g class="cls-1"><path class="cls-3" d="M8.34,34.11v2.17H.67V34.11l1.87-.63V21.61L.67,20.86V18.78l7.67-.12v2.2l-1.92.75v4.12H13V21.61L11,20.86V18.78l7.68-.12v2.2l-1.88.75V33.48l1.88.63v2.17H11V34.11L13,33.48V28.66H6.42v4.82Z"/><path class="cls-3" d="M31,18.36a7.37,7.37,0,0,1,5.81,2.33,9.59,9.59,0,0,1,2.06,6.54A9.8,9.8,0,0,1,36.53,34a7.75,7.75,0,0,1-6.06,2.58,7.21,7.21,0,0,1-5.75-2.3c-1.34-1.54-2-3.77-2-6.7a9.78,9.78,0,0,1,2.21-6.78A7.68,7.68,0,0,1,31,18.36Zm-.13,3.12a3.4,3.4,0,0,0-2.95,1.39,8.05,8.05,0,0,0-1,4.61A8.8,8.8,0,0,0,27.8,32a3.07,3.07,0,0,0,2.79,1.46,3.47,3.47,0,0,0,3-1.44,8.16,8.16,0,0,0,1-4.68,8.23,8.23,0,0,0-1-4.47A3.2,3.2,0,0,0,30.84,21.48Z"/><path class="cls-3" d="M51.59,18.36a7.35,7.35,0,0,1,5.81,2.33,9.54,9.54,0,0,1,2.06,6.54A9.8,9.8,0,0,1,57.15,34a7.75,7.75,0,0,1-6.06,2.58,7.21,7.21,0,0,1-5.75-2.3q-2-2.31-2-6.7a9.83,9.83,0,0,1,2.21-6.78A7.7,7.7,0,0,1,51.59,18.36Zm-.13,3.12a3.38,3.38,0,0,0-2.94,1.39,8.05,8.05,0,0,0-1,4.61A8.8,8.8,0,0,0,48.43,32a3.06,3.06,0,0,0,2.78,1.46,3.49,3.49,0,0,0,3-1.44,8.16,8.16,0,0,0,1-4.68,8.23,8.23,0,0,0-1-4.47A3.23,3.23,0,0,0,51.46,21.48Z"/><path class="cls-3" d="M71.27,34.11v2.17H63.59V34.11l1.87-.63V21.61l-1.87-.75V18.78l7.68-.12v2.2l-1.93.75v4.3H71l4.17-7.13,4.56-.12v2.2l-2.23.7L74.24,27l4.68,6.47,1.85.63v2.17H73.09V34.11l1.45-.6-3.37-4.85H69.34v4.82Z"/></g></g></g></g></g></svg>