<svg id="Symbol_39_1" data-name="Symbol 39 – 1" xmlns="http://www.w3.org/2000/svg" width="32" height="32" viewBox="0 0 32 32">
  <path id="Path_165" data-name="Path 165" d="M30,32H2a2,2,0,0,1-2-2V2A2,2,0,0,1,2,0H30a2,2,0,0,1,2,2V30A2,2,0,0,1,30,32Z" fill="#db504a"/>
  <path id="Path_166" data-name="Path 166" d="M12.12,24.85h0a1.17,1.17,0,0,1-.85-.37L4.54,17.29a1.164,1.164,0,0,1,1.7-1.59L12.15,22,26.59,7.49a1.17,1.17,0,0,1,1.65,0,1.15,1.15,0,0,1,.34.82,1.17,1.17,0,0,1-.34.83L13,24.51A1.16,1.16,0,0,1,12.12,24.85Z" fill="#fff"/>
</svg>
