<svg id="Asset_25" data-name="Asset 25" xmlns="http://www.w3.org/2000/svg" width="191.795" height="163.431" viewBox="0 0 191.795 163.431">
  <g id="Layer_1" data-name="Layer 1">
    <path id="Path_144" data-name="Path 144" d="M112.79,80.31a3,3,0,0,1-2.82-2L95.69,39.1a3,3,0,0,1,1.79-3.85L136.72,21a3,3,0,0,1,3.85,1.79L154.85,62a3,3,0,0,1-1.79,3.85L113.82,80.13a3.1,3.1,0,0,1-1.03.18ZM102.35,39.86l12.23,33.61,33.6-12.23L136,27.63Z" fill="#0a4c61"/>
    <path id="Path_145" data-name="Path 145" d="M71.91,90.41a3,3,0,0,1-2.82-2L57.88,57.63a3,3,0,0,1,1.79-3.84L98.91,39.51a3,3,0,0,1,3.85,1.79L114,72.1a3,3,0,0,1-1.82,3.9L72.94,90.23A3,3,0,0,1,71.91,90.41Zm-7.37-32,9.17,25.17,33.6-12.23L98.15,46.17Z" fill="#0a4c61"/>
    <path id="Path_146" data-name="Path 146" d="M31.16,101.22a2.94,2.94,0,0,1-1.27-.28,3,3,0,0,1-1.55-1.69l-8.52-23.4A3,3,0,0,1,21.62,72L60.86,57.72a3,3,0,0,1,3.84,1.8l8.52,23.39a3,3,0,0,1-1.8,3.85L32.18,101a3,3,0,0,1-1.02.22Zm-4.67-24.6L33,94.37,66.6,82.14,60.09,64.39Z" fill="#0a4c61"/>
    <path id="Path_147" data-name="Path 147" d="M23.62,163.43a1.87,1.87,0,0,1-.57-.08,2,2,0,0,1-1.35-2.48l20-67.74a2,2,0,1,1,3.84,1.13L25.54,162A2,2,0,0,1,23.62,163.43Z" fill="#0a4c61"/>
    <path id="Path_148" data-name="Path 148" d="M139.45,161.25a2,2,0,0,1-1.95-1.55L117.8,75.23a2,2,0,1,1,3.9-.91l19.7,84.47a2,2,0,0,1-1.5,2.41,2.3,2.3,0,0,1-.45.05Z" fill="#0a4c61"/>
    <path id="Path_149" data-name="Path 149" d="M33.76,155.25h-.32a2,2,0,0,1-1.65-2.3L41.6,93.37a2,2,0,0,1,3.95.65l-9.82,59.55A2,2,0,0,1,33.76,155.25Z" fill="#0a4c61"/>
    <path id="Path_150" data-name="Path 150" d="M154,7.58a1,1,0,0,1-.67-.26l-5.58-5A1,1,0,1,1,149.09.84l5.58,5A1,1,0,0,1,154,7.58Z" fill="#0a4c61"/>
    <path id="Path_151" data-name="Path 151" d="M148.55,8.14a1,1,0,0,1-.76-1.65L153,.35a1,1,0,0,1,1.52,1.3l-5.23,6.14A1,1,0,0,1,148.55,8.14Z" fill="#0a4c61"/>
    <path id="Path_152" data-name="Path 152" d="M9.64,74h0a.49.49,0,0,1-.46-.53L9.5,68a.5.5,0,0,1,1,.07l-.36,5.53a.5.5,0,0,1-.5.4Z" fill="#0a4c61"/>
    <path id="Path_153" data-name="Path 153" d="M12.78,71.36h0l-5.95-.23a.5.5,0,0,1-.48-.52.48.48,0,0,1,.52-.48l6,.23a.5.5,0,1,1,0,1Z" fill="#0a4c61"/>
    <path id="Path_154" data-name="Path 154" d="M166.9,53.45a1,1,0,0,1-.66-.26l-7.76-7a1,1,0,1,1,1.33-1.49l7.76,7a1,1,0,0,1-.67,1.75Z" fill="#0a4c61"/>
    <path id="Path_155" data-name="Path 155" d="M160.79,55.49a1,1,0,0,1-.92-1.38l4.53-11.29a1,1,0,0,1,1.86.74l-4.54,11.3a1,1,0,0,1-.93.63Z" fill="#0a4c61"/>
    <path id="Path_156" data-name="Path 156" d="M166,49.84h-6.68a1,1,0,0,1,0-2H166a1,1,0,0,1,0,2Z" fill="#0a4c61"/>
    <path id="Path_157" data-name="Path 157" d="M175.82,27.84a1,1,0,0,1-.42-1.91l14.81-6.72A1,1,0,1,1,191,21l-14.81,6.72A1,1,0,0,1,175.82,27.84Z" fill="#0a4c61"/>
    <path id="Path_158" data-name="Path 158" d="M190,31.37a1,1,0,0,1-.71-.3L176,17.55a1,1,0,1,1,1.43-1.41l13.3,13.53a1,1,0,0,1,0,1.41A.94.94,0,0,1,190,31.37Z" fill="#0a4c61"/>
    <path id="Path_159" data-name="Path 159" d="M181.5,28.86a.995.995,0,0,1-.91-1.4l4.17-9.54a1,1,0,1,1,1.83.8l-4.17,9.54A1,1,0,0,1,181.5,28.86Z" fill="#0a4c61"/>
    <path id="Path_160" data-name="Path 160" d="M2.36,91a2.36,2.36,0,1,1,2.36-2.36A2.36,2.36,0,0,1,2.36,91Zm0-3.72a1.36,1.36,0,1,0,1.36,1.36,1.36,1.36,0,0,0-1.36-1.36Z" fill="#0a4c61"/>
    <path id="Path_161" data-name="Path 161" d="M2.36,63a2.36,2.36,0,1,1,2.36-2.36A2.36,2.36,0,0,1,2.36,63Zm0-3.72a1.34,1.34,0,1,1,0,.04Z" fill="#0a4c61"/>
    <path id="Path_162" data-name="Path 162" d="M136.67,11.36A2.36,2.36,0,1,1,139,9a2.36,2.36,0,0,1-2.33,2.36Zm0-3.72A1.36,1.36,0,1,0,138,9,1.36,1.36,0,0,0,136.67,7.64Z" fill="#0a4c61"/>
    <path id="Path_163" data-name="Path 163" d="M185.08,61.18a2.36,2.36,0,1,1,2.36-2.36,2.36,2.36,0,0,1-2.36,2.36Zm0-3.72a1.36,1.36,0,1,0,1.36,1.36,1.36,1.36,0,0,0-1.36-1.36Z" fill="#0a4c61"/>
  </g>
</svg>
