<?xml version="1.0" encoding="utf-8"?>
<!-- Generator: Adobe Illustrator 23.0.3, SVG Export Plug-In . SVG Version: 6.00 Build 0)  -->
<svg version="1.1" id="Layer_1" xmlns="http://www.w3.org/2000/svg" xmlns:xlink="http://www.w3.org/1999/xlink" x="0px" y="0px"
	 viewBox="0 0 15.6 21.6" style="enable-background:new 0 0 15.6 21.6;" xml:space="preserve">
<style type="text/css">
	.st0{fill:#FFFFFF;}
</style>
<g id="Path_169">
	<path class="st0" d="M13.2,20.8c-0.3,0-0.7-0.1-0.9-0.3L1.3,12c-0.7-0.5-0.8-1.5-0.3-2.1c0.1-0.1,0.2-0.2,0.3-0.3l11-8.6
		c0.6-0.6,1.6-0.5,2.1,0.1c0.6,0.6,0.5,1.6-0.1,2.1c-0.1,0-0.1,0.1-0.2,0.1l-9.5,7.4l9.5,7.4c0.6,0.5,0.8,1.5,0.2,2.1
		C14.1,20.6,13.7,20.8,13.2,20.8L13.2,20.8z"/>
	<path class="st0" d="M13.3,1.7c-0.2,0-0.4,0.1-0.5,0.2l-11,8.6c0,0-0.1,0.1-0.1,0.1c-0.1,0.2-0.2,0.4-0.2,0.6
		c0,0.2,0.1,0.4,0.3,0.5l11,8.5c0.1,0.1,0.3,0.2,0.5,0.2c0,0,0,0,0,0h0.1c0.2,0,0.3-0.1,0.4-0.3c0.1-0.2,0.2-0.4,0.2-0.6
		s-0.1-0.4-0.3-0.5l-10.2-8l10.2-8c0.1-0.1,0.1-0.1,0.1-0.1c0.2-0.1,0.2-0.3,0.2-0.5c0-0.2-0.1-0.4-0.2-0.5
		C13.7,1.8,13.5,1.7,13.3,1.7z"/>
</g>
</svg>
