<svg xmlns="http://www.w3.org/2000/svg" width="27.776" height="40" viewBox="0 0 27.776 40">
  <g id="Asset_43" data-name="Asset 43" transform="translate(0 0)">
    <g id="Layer_1" data-name="Layer 1" transform="translate(0 0)">
      <path id="Path_209" data-name="Path 209" d="M18.764,18.9a9.453,9.453,0,1,1,9.38-9.45A9.432,9.432,0,0,1,18.764,18.9Zm0-15.569A6.121,6.121,0,1,0,24.82,9.45a6.107,6.107,0,0,0-6.055-6.119Z" transform="translate(-4.864 0)" fill="#fff"/>
      <path id="Path_210" data-name="Path 210" d="M27.535,62.7H.2L.1,61.144c-.143-2-.637-12.153,3.227-15.155,5.047-3.907,17.408-3.659,21.68.438h0c1.578,1.513,2.462,4.421,2.7,8.889a47.735,47.735,0,0,1-.043,5.872ZM3.327,59.365h21.11c.152-3.973-.247-9.122-1.716-10.549h0C19.632,45.851,9.1,45.727,5.375,48.606,3.75,49.881,3.241,55.211,3.327,59.365Z" transform="translate(0 -22.695)" fill="#fff"/>
    </g>
  </g>
</svg>
