<svg xmlns="http://www.w3.org/2000/svg" width="52.285" height="37.339" viewBox="0 0 52.285 37.339">
  <g id="Asset_47" data-name="Asset 47" transform="translate(0.003 -0.002)">
    <g id="Layer_1" data-name="Layer 1" transform="translate(-0.002 0.002)">
      <path id="Path_213" data-name="Path 213" d="M52,.359A1.075,1.075,0,0,0,50.891.049L.767,15.147a1.079,1.079,0,0,0-.108,2.029l14.883,6.256,2,13a1.079,1.079,0,0,0,.976.911h.091a1.058,1.058,0,0,0,.6-.19h0l11.472-7.789,7.262,3.083a1.084,1.084,0,0,0,1.416-.574L52.2,1.5A1.084,1.084,0,0,0,52,.359ZM4.26,16.352,43.728,4.461l-27.322,17Zm13.415,6.861L37.791,10.692,21.781,23.848h0a1.105,1.105,0,0,0-.341.488l-2.461,7.34Zm2.953,10.362,2.491-7.439L28.3,28.342ZM37.8,30.017,24.527,24.4,48.5,4.716Z" transform="translate(0.002 -0.002)" fill="#fff"/>
    </g>
  </g>
</svg>
