<svg xmlns="http://www.w3.org/2000/svg" width="39.619" height="29.772" viewBox="0 0 39.619 29.772">
  <g id="Layer_1" data-name="Layer 1" transform="translate(0 0.958)">
    <path id="Path_138" data-name="Path 138" d="M37.57,3.5H2.049A1.917,1.917,0,0,1,0,1.75,1.917,1.917,0,0,1,2.049,0H37.57a1.917,1.917,0,0,1,2.049,1.75A1.917,1.917,0,0,1,37.57,3.5Z" transform="translate(0 -0.958)" fill="#db504a"/>
    <path id="Path_139" data-name="Path 139" d="M37.57,24.82H2.049A1.917,1.917,0,0,1,0,23.07a1.917,1.917,0,0,1,2.049-1.75H37.57a1.917,1.917,0,0,1,2.049,1.75A1.917,1.917,0,0,1,37.57,24.82Z" transform="translate(0 -8.666)" fill="#db504a"/>
    <path id="Path_140" data-name="Path 140" d="M37.57,46.15H2.049a1.772,1.772,0,1,1,0-3.5H37.57a1.772,1.772,0,1,1,0,3.5Z" transform="translate(0 -17.336)" fill="#db504a"/>
  </g>
</svg>
