<svg id="Asset_20" data-name="Asset 20" xmlns="http://www.w3.org/2000/svg" width="196.6" height="145.51" viewBox="0 0 196.6 145.51">
  <g id="Layer_1" data-name="Layer 1">
    <path id="Path_126" data-name="Path 126" d="M101.56,145.51a65.5,65.5,0,1,1,65.5-65.5,65.5,65.5,0,0,1-65.5,65.5Zm0-125a59.5,59.5,0,1,0,59.5,59.5,59.5,59.5,0,0,0-59.5-59.5Z" fill="#0a4c61"/>
    <path id="Path_127" data-name="Path 127" d="M101.56,132.14c27.77,0,50.41-19.63,51.52-44.22l-103,.8C51.64,112.94,74.09,132.14,101.56,132.14Z" fill="#0a4c61"/>
    <path id="Path_128" data-name="Path 128" d="M182.91,0a79.19,79.19,0,0,1-6.59,8c-2.58,2.48-7.1,6.27-7.1,6.27a31.08,31.08,0,0,1,7.57,6.17c2.2,2.68,6.12,8.57,6.12,8.57a41,41,0,0,1,7.38-9.17c4-4.11,6.28-5.27,6.31-6.1-.27-.93-3.24-3.06-6.1-5.68S182.91,0,182.91,0Z" fill="#0a4c61"/>
    <path id="Path_129" data-name="Path 129" d="M182.91,104a53.282,53.282,0,0,1-4.3,5.23c-1.69,1.62-4.65,4.1-4.65,4.1a20.22,20.22,0,0,1,4.95,4c1.44,1.75,4,5.6,4,5.6a26.669,26.669,0,0,1,4.82-6c2.63-2.69,4.11-3.45,4.13-4-.18-.6-2.12-2-4-3.71S182.91,104,182.91,104Z" fill="#0a4c61"/>
    <path id="Path_130" data-name="Path 130" d="M9,73.79A52.7,52.7,0,0,1,4.64,79C3,80.64,0,83.12,0,83.12a20.6,20.6,0,0,1,5,4c1.43,1.74,4,5.59,4,5.59a26.67,26.67,0,0,1,4.82-6c2.63-2.68,4.11-3.44,4.12-4-.17-.6-2.11-2-4-3.71S9,73.79,9,73.79Z" fill="#0a4c61"/>
    <path id="Path_131" data-name="Path 131" d="M21,103.54a27.131,27.131,0,0,1-2.26,2.75c-.89.86-2.45,2.16-2.45,2.16a10.86,10.86,0,0,1,2.61,2.13c.75.92,2.1,2.94,2.1,2.94a14.251,14.251,0,0,1,2.54-3.15c1.39-1.41,2.16-1.81,2.17-2.1a13.54,13.54,0,0,0-2.1-2C22.64,105.39,21,103.54,21,103.54Z" fill="#0a4c61"/>
    <path id="Path_132" data-name="Path 132" d="M173.93,43.7a27.068,27.068,0,0,1-2.27,2.76c-.88.85-2.44,2.15-2.44,2.15a10.63,10.63,0,0,1,2.6,2.13c.76.92,2.11,2.94,2.11,2.94a14.25,14.25,0,0,1,2.54-3.15c1.38-1.41,2.16-1.81,2.17-2.1a14.059,14.059,0,0,0-2.1-2A36.29,36.29,0,0,1,173.93,43.7Z" fill="#0a4c61"/>
    <path id="Path_133" data-name="Path 133" d="M84.65,68.64S90,61.1,95,68.64" fill="none" stroke="#0a4c61" stroke-linecap="round" stroke-miterlimit="10" stroke-width="6"/>
    <path id="Path_134" data-name="Path 134" d="M107.69,68.64s5.3-7.54,10.32,0" fill="none" stroke="#0a4c61" stroke-linecap="round" stroke-miterlimit="10" stroke-width="6"/>
  </g>
</svg>
