<svg xmlns="http://www.w3.org/2000/svg" viewBox="0 0 196.6 145.51"><defs><style>.cls-1{fill:#fff;}.cls-2{fill:#0a4c61;}</style></defs><title>Asset 12</title><g id="Layer_2" data-name="Layer 2"><g id="Layer_1-2" data-name="Layer 1"><path class="cls-1" d="M101.56,17.51A62.5,62.5,0,1,0,164.06,80,62.5,62.5,0,0,0,101.56,17.51Z"/><path class="cls-2" d="M101.56,145.51A65.5,65.5,0,1,1,167.06,80,65.57,65.57,0,0,1,101.56,145.51Zm0-125A59.5,59.5,0,1,0,161.06,80,59.57,59.57,0,0,0,101.56,20.51Z"/><path class="cls-2" d="M101.56,132.14c27.77,0,50.41-19.63,51.52-44.22l-103,.8C51.64,112.94,74.09,132.14,101.56,132.14Z"/><ellipse class="cls-2" cx="90.26" cy="68.64" rx="3.71" ry="6.71"/><ellipse class="cls-2" cx="112.85" cy="68.64" rx="3.71" ry="6.71"/><path class="cls-2" d="M182.91,0a79.19,79.19,0,0,1-6.59,8c-2.58,2.48-7.1,6.27-7.1,6.27a31.08,31.08,0,0,1,7.57,6.17c2.2,2.68,6.12,8.57,6.12,8.57a41,41,0,0,1,7.38-9.17c4-4.11,6.28-5.27,6.31-6.1-.27-.93-3.24-3.06-6.1-5.68S182.91,0,182.91,0Z"/><path class="cls-2" d="M182.91,104a53.28,53.28,0,0,1-4.3,5.23c-1.69,1.62-4.65,4.1-4.65,4.1a20.22,20.22,0,0,1,4.95,4c1.44,1.75,4,5.6,4,5.6a26.67,26.67,0,0,1,4.82-6c2.63-2.69,4.11-3.45,4.13-4-.18-.6-2.12-2-4-3.71S182.91,104,182.91,104Z"/><path class="cls-2" d="M9,73.79A52.7,52.7,0,0,1,4.64,79C3,80.64,0,83.12,0,83.12a20.6,20.6,0,0,1,5,4c1.43,1.74,4,5.59,4,5.59a26.67,26.67,0,0,1,4.82-6c2.63-2.68,4.11-3.44,4.12-4-.17-.6-2.11-2-4-3.71S9,73.79,9,73.79Z"/><path class="cls-2" d="M21,103.54a27.13,27.13,0,0,1-2.26,2.75c-.89.86-2.45,2.16-2.45,2.16a10.86,10.86,0,0,1,2.61,2.13c.75.92,2.1,2.94,2.1,2.94a14.25,14.25,0,0,1,2.54-3.15c1.39-1.41,2.16-1.81,2.17-2.1a13.54,13.54,0,0,0-2.1-2C22.64,105.39,21,103.54,21,103.54Z"/><path class="cls-2" d="M173.93,43.7a27.07,27.07,0,0,1-2.27,2.76c-.88.85-2.44,2.15-2.44,2.15a10.63,10.63,0,0,1,2.6,2.13c.76.92,2.11,2.94,2.11,2.94a14.25,14.25,0,0,1,2.54-3.15c1.38-1.41,2.16-1.81,2.17-2.1a14.06,14.06,0,0,0-2.1-2C175.53,45.55,173.93,43.7,173.93,43.7Z"/></g></g></svg>