<svg xmlns="http://www.w3.org/2000/svg" viewBox="0 0 67.86 105.28"><defs><style>.cls-1{fill:#0a4c61;}</style></defs><title>Asset 13</title><g id="Layer_2" data-name="Layer 2"><g id="Layer_1-2" data-name="Layer 1"><path class="cls-1" d="M11.46,28.45a3,3,0,0,1-2.13-5.12L31.81.88A2.85,2.85,0,0,1,33.94,0a3,3,0,0,1,2.13.9l22,22.45a3,3,0,1,1-4.28,4.2L33.91,7.26,13.58,27.57A3,3,0,0,1,11.46,28.45Z"/><path class="cls-1" d="M33.93,77.14a3,3,0,0,1-3-3V3a3,3,0,0,1,6,0V74.14A3,3,0,0,1,33.93,77.14Z"/><path class="cls-1" d="M64.86,105.28H3a3,3,0,0,1-3-3V40.42a3,3,0,0,1,3-3H23.66a3,3,0,0,1,0,6H6V99.28H61.86V43.42H44.71a3,3,0,1,1,0-6H64.86a3,3,0,0,1,3,3v61.86A3,3,0,0,1,64.86,105.28Z"/></g></g></svg>