<svg xmlns="http://www.w3.org/2000/svg" width="156.895" height="147.729" viewBox="0 0 156.895 147.729">
  <g id="Asset_39" data-name="Asset 39" transform="translate(-0.007 0.021)">
    <g id="Layer_1" data-name="Layer 1" transform="translate(0.007 -0.022)">
      <path id="Path_191" data-name="Path 191" d="M150.139,147.707H6.777c-2.125,0-4.058-1.894-5.159-3.665a10.048,10.048,0,0,1-.631-9.786C16.648,102.473,68.349,7.779,69.365,6.439c3.465-4.52,7.114-6.675,10.9-6.444,5.343.362,8.577,5.443,9.239,6.614,10.009,15.26,50.993,96.319,66.407,127.624h0a10.009,10.009,0,0,1-.624,9.786C154.2,145.813,152.264,147.707,150.139,147.707ZM6.993,143.087Zm72.474,0h70.518a5.058,5.058,0,0,0,1.886-2.448,5.2,5.2,0,0,0-.085-4.342C133,98.146,94.811,23.016,85.626,9.119l-.085-.146c-.077-.169-2.387-4.135-5.59-4.358-2.579-.146-5.128,2.31-6.814,4.5-2.071,3.742-50.916,92.515-68.008,127.162a5.2,5.2,0,0,0-.085,4.342,5.1,5.1,0,0,0,1.886,2.471H77.449a2.371,2.371,0,0,1,2.017,0Z" transform="translate(-0.007 0.022)" fill="#fff"/>
      <path id="Path_192" data-name="Path 192" d="M98.472,117.107c-2.171,0-5.274-.493-6.652-2.356-.678-.909-1.809-2.433-4.165-28.9-1.14-12.781-2.01-25.346-2.025-25.469v-.162c0-1.063.6-6.337,12.527-6.337s12.535,5.274,12.535,6.337a.662.662,0,0,1,0,.123c-.262,4.874-2.7,47.774-5.99,54.1-.77,1.54-2.579,2.418-5.189,2.625C99.2,117.061,98.85,117.107,98.472,117.107Z" transform="translate(-19.706 -12.379)" fill="#fff"/>
      <path id="Path_193" data-name="Path 193" d="M98.746,165.592A10.556,10.556,0,1,1,109.3,155.043a10.556,10.556,0,0,1-10.556,10.548Z" transform="translate(-20.295 -33.223)" fill="#fff"/>
    </g>
  </g>
</svg>
