<?xml version="1.0" encoding="utf-8"?>
<!-- Generator: Adobe Illustrator 23.0.3, SVG Export Plug-In . SVG Version: 6.00 Build 0)  -->
<svg version="1.1" id="Layer_1" xmlns="http://www.w3.org/2000/svg" xmlns:xlink="http://www.w3.org/1999/xlink" x="0px" y="0px"
	 viewBox="0 0 27.4 24" style="enable-background:new 0 0 27.4 24;" xml:space="preserve">
<style type="text/css">
	.st0{fill:#FFFFFF;stroke:#DB504A;stroke-width:0.5;stroke-miterlimit:10;}
</style>
<title>red-heart</title>
<g>
	<g id="Layer_1-2">
		<path id="heart-solid-2" class="st0" d="M24.7,1.6c-3-2.4-7.4-2.1-10,0.7l-1,1.1l-1-1.1c-2.6-2.8-7-3.2-10-0.7
			c-3.2,2.8-3.6,7.6-0.8,10.8c0.1,0.1,0.2,0.2,0.3,0.3l10.3,10.7c0.6,0.7,1.7,0.7,2.4,0l0.1,0l10.4-10.7c2.9-3.1,2.8-7.9-0.2-10.8
			c0,0,0,0,0,0L24.7,1.6L24.7,1.6z"/>
	</g>
</g>
</svg>
