<svg xmlns="http://www.w3.org/2000/svg" xmlns:xlink="http://www.w3.org/1999/xlink" width="30" height="30" viewBox="0 0 30 30">
  <defs>
    <clipPath id="clip-path">
      <rect id="Rectangle_251" data-name="Rectangle 251" width="30" height="30" transform="translate(25 153)" fill="#084c61"/>
    </clipPath>
  </defs>
  <g id="Symbol_49_1" data-name="Symbol 49 – 1" transform="translate(-25 -148)">
    <g id="Mask_Group_10" data-name="Mask Group 10" transform="translate(0 -5)" clip-path="url(#clip-path)">
      <g id="Asset_51" data-name="Asset 51" transform="translate(29.74 153.001)">
        <g id="Layer_1" data-name="Layer 1">
          <path id="Path_227" data-name="Path 227" d="M19.8,12.8H18.748c-.037-2.028-.414-7.7-3.394-10.771A6.531,6.531,0,0,0,10.485,0h0A7.317,7.317,0,0,0,4.92,2.308C2,5.428,1.748,10.814,1.768,12.8H.714A.711.711,0,0,0,0,13.517V29.284A.714.714,0,0,0,.714,30H19.8a.714.714,0,0,0,.714-.714V13.517A.711.711,0,0,0,19.8,12.8ZM5.96,3.283a5.941,5.941,0,0,1,4.523-1.854h0a5.105,5.105,0,0,1,3.843,1.594c2.586,2.668,2.943,7.9,2.986,9.78H3.2C3.188,11,3.4,6.014,5.96,3.283ZM19.1,28.57H1.429V14.231H19.091Z" fill="#084c61"/>
          <path id="Path_228" data-name="Path 228" d="M8,25.027a20.686,20.686,0,0,0,4.528,0,10.26,10.26,0,0,0-.814-2.931,2.266,2.266,0,1,0-2.843.034A17.98,17.98,0,0,0,8,25.027Z" fill="#084c61"/>
        </g>
      </g>
    </g>
  </g>
</svg>
