<svg xmlns="http://www.w3.org/2000/svg" xmlns:xlink="http://www.w3.org/1999/xlink" width="30" height="30" viewBox="0 0 30 30">
  <defs>
    <clipPath id="clip-path">
      <rect id="Rectangle_249" data-name="Rectangle 249" width="30" height="30" transform="translate(25 212)" fill="#084c61" stroke="#231f20" stroke-width="0.2"/>
    </clipPath>
  </defs>
  <g id="Symbol_53_1" data-name="Symbol 53 – 1" transform="translate(-25 -388)">
    <g id="Mask_Group_8" data-name="Mask Group 8" transform="translate(0 176)" clip-path="url(#clip-path)">
      <g id="Asset_50" data-name="Asset 50" transform="translate(26.96 212)">
        <g id="Layer_1" data-name="Layer 1">
          <path id="Path_224" data-name="Path 224" d="M25.276,23.891a10.851,10.851,0,0,1-1.625-4.5,27.347,27.347,0,0,1,.524-5.2c.461-2.8.9-5.445-.169-7.342a10.335,10.335,0,0,0-7.4-5.02C16.413.785,15.068,0,13.374,0c-1.609,0-2.911.714-3.2,1.688A9.4,9.4,0,0,0,2.5,6.994c-1.012,1.888-.768,4.609-.511,7.5a36.414,36.414,0,0,1,.221,4.891A11.491,11.491,0,0,1,.743,23.814C.121,25.049-.33,25.942.313,26.549c.255.242.732.691,6.812.951.855.036,1.7.063,2.474.083C9.969,28.978,11.8,30,13.39,30c1.8,0,3.515-1.1,3.87-2.385.505-.012,1.029-.025,1.556-.044,6.272-.223,6.8-.839,7.056-1.137h0C26.357,25.869,25.927,25.082,25.276,23.891ZM13.39,28.85a3.062,3.062,0,0,1-2.52-1.237c1.2.025,2.009.029,2.02.029h1.281c.5,0,1.129,0,1.824-.01A3.194,3.194,0,0,1,13.39,28.85Zm-.488-2.36c-6.449-.036-10.926-.4-11.74-.753a7.5,7.5,0,0,1,.611-1.4,12.3,12.3,0,0,0,1.584-4.891,36.933,36.933,0,0,0-.223-5.053c-.242-2.71-.472-5.268.384-6.85,2.172-4.06,5.3-4.874,9.643-4.874,3.265,0,7.638.824,9.841,4.749.866,1.536.463,3.995.036,6.591a27.932,27.932,0,0,0-.538,5.429,11.738,11.738,0,0,0,1.765,5.009,9.677,9.677,0,0,1,.64,1.3c-1.052.547-6.916.816-12,.749Z" fill="#084c61" stroke="#231f20" stroke-width="0.2"/>
        </g>
      </g>
    </g>
  </g>
</svg>
